<?xml version="1.0" encoding="UTF-8"?>
<svg width="56px" height="56px" viewBox="0 0 56 56" version="1.1" xmlns="http://www.w3.org/2000/svg" xmlns:xlink="http://www.w3.org/1999/xlink">
    <!-- Generator: Sketch 51 (57462) - http://www.bohemiancoding.com/sketch -->
    <title>icon/空状态/icon_时间到了</title>
    <desc>Created with Sketch.</desc>
    <defs></defs>
    <g id="设计稿" stroke="none" stroke-width="1" fill="none" fill-rule="evenodd">
        <g id="02-兑换码界面-兑换失败" transform="translate(-160.000000, -303.000000)" fill-rule="nonzero">
            <g id="提示弹框" transform="translate(40.000000, 263.000000)">
                <g id="icon/空状态/icon_时间到了" transform="translate(120.000000, 40.000000)">
                    <rect id="Rectangle" x="1.42108547e-14" y="0" width="56" height="56"></rect>
                    <path d="M28,56 C12.536027,56 0,43.463973 0,28 C0,12.536027 12.536027,0 28,0 C43.463973,0 56,12.536027 56,28 C56,43.463973 43.463973,56 28,56 Z M15.4,25.2 C16.9463973,25.2 18.2,23.9463973 18.2,22.4 C18.2,20.8536027 16.9463973,19.6 15.4,19.6 C13.8536027,19.6 12.6,20.8536027 12.6,22.4 C12.6,23.9463973 13.8536027,25.2 15.4,25.2 Z M40.6,25.2 C42.1463973,25.2 43.4,23.9463973 43.4,22.4 C43.4,20.8536027 42.1463973,19.6 40.6,19.6 C39.0536027,19.6 37.8,20.8536027 37.8,22.4 C37.8,23.9463973 39.0536027,25.2 40.6,25.2 Z M37.6519099,41.1037591 C35.1866854,38.1453932 31.5417995,36.4 27.6150354,36.4 C23.8367061,36.4 20.3159096,38.0152978 17.8538884,40.7835042 C17.3400408,41.3612557 17.3918451,42.2461716 17.9695965,42.7600192 C18.547348,43.2738669 19.4322639,43.2220626 19.9461116,42.6443111 C21.8822477,40.4673905 24.6447254,39.2 27.6150354,39.2 C30.7018634,39.2 33.5621059,40.5696582 35.5008616,42.8962409 C35.9958418,43.4902365 36.8786311,43.5705044 37.4726267,43.0755242 C38.0666223,42.580544 38.1468901,41.6977547 37.6519099,41.1037591 Z" id="icon_failure" fill="#09BB07"></path>
                </g>
            </g>
        </g>
    </g>
</svg>